<svg width="378" height="370" viewBox="0 0 378 370" fill="none" xmlns="http://www.w3.org/2000/svg">
<mask id="mask0_855_2" style="mask-type:alpha" maskUnits="userSpaceOnUse" x="0" y="0" width="378" height="370">
<rect width="378" height="370" rx="15" fill="#3F3A59"/>
</mask>
<g mask="url(#mask0_855_2)">
<path d="M188.809 192.146L188.797 192.148V192.158H188.801L188.809 192.146Z" fill="white" fill-opacity="0.05"/>
<path d="M29.0955 -1H-4V45.6107L188.67 192L29.0955 -1Z" fill="white" fill-opacity="0.05"/>
<path d="M188.837 192.103L188.795 192.101L188.797 192.148L188.809 192.146L188.837 192.103Z" fill="white" fill-opacity="0.05"/>
<path d="M188.931 192.11L188.911 192.129L189 192.114L188.931 192.11Z" fill="white" fill-opacity="0.05"/>
<path d="M188.735 192.098L-4 192.984V237.745L188.749 192.157L188.735 192.098Z" fill="white" fill-opacity="0.05"/>
<path d="M-4 375.734V385H62.4766L188.67 192.359L-4 375.734Z" fill="white" fill-opacity="0.05"/>
<path d="M190.964 385H236.22L189 192.359L190.964 385Z" fill="white" fill-opacity="0.05"/>
<path d="M188.67 192.181L188.756 192.186L188.751 192.167L188.67 192.181Z" fill="white" fill-opacity="0.05"/>
<path d="M188.845 192.191L382 203.719V158.88L188.898 192.141L188.845 192.191Z" fill="white" fill-opacity="0.05"/>
<path d="M188.797 192.158V192.165L188.801 192.158H188.797Z" fill="white" fill-opacity="0.05"/>
<path d="M188.67 192.36L188.775 192.26L188.763 192.215L188.67 192.36Z" fill="white" fill-opacity="0.05"/>
<path d="M188.809 192.146L188.801 192.158L188.797 192.165V192.237L188.845 192.191L188.899 192.141L188.911 192.129L188.931 192.11L382 8.35414V-1H315.331L188.837 192.103L188.809 192.146Z" fill="white" fill-opacity="0.05"/>
<path d="M188.749 192.157L188.751 192.167L188.756 192.186L188.763 192.215L188.775 192.26L188.799 192.36L188.797 192.237V192.165V192.158V192.148L188.795 192.101L196.526 -1H151.102L188.735 192.098L188.749 192.157Z" fill="white" fill-opacity="0.05"/>
<path d="M382 368.69V300.343L189 192.359L382 368.69Z" fill="white" fill-opacity="0.05"/>
<path d="M189.059 192.234L189.055 192.246L189.066 192.249V192.244L189.059 192.234Z" fill="white" fill-opacity="0.05"/>
<path d="M-4 263.955V316.573L188.809 193.103L-4 263.955Z" fill="white" fill-opacity="0.05"/>
<path d="M189.031 192.191L189.012 192.227L189.055 192.246L189.059 192.234L189.031 192.191Z" fill="white" fill-opacity="0.05"/>
<path d="M189.074 192.107L189.083 192.132L189.105 192.045L189.074 192.107Z" fill="white" fill-opacity="0.05"/>
<path d="M188.985 192.282L91.781 385H142.505L189.045 192.292L188.985 192.282Z" fill="white" fill-opacity="0.05"/>
<path d="M189.198 192.446L260.175 385H315.899H316.046L189.198 192.446Z" fill="white" fill-opacity="0.05"/>
<path d="M189.33 192.143L382 272.998V224.652L189.33 192.143Z" fill="white" fill-opacity="0.05"/>
<path d="M189.034 192.375L189.074 192.298L189.053 192.294L189.034 192.375Z" fill="white" fill-opacity="0.05"/>
<path d="M189.113 192.217L286.57 -1H235.736L189.089 192.15L189.113 192.217Z" fill="white" fill-opacity="0.05"/>
<path d="M189.065 192.249L189.07 192.25L189.065 192.244V192.249Z" fill="white" fill-opacity="0.05"/>
<path d="M189.198 192.445L189.148 192.31L189.103 192.303L189.198 192.445Z" fill="white" fill-opacity="0.05"/>
<path d="M189.031 192.191L189.058 192.234L189.065 192.244L189.07 192.251L189.138 192.28L189.113 192.217L189.089 192.15L189.082 192.132L189.074 192.107L117.893 -1H62.1015L61.8779 -0.480517L189.031 192.191Z" fill="white" fill-opacity="0.05"/>
<path d="M189.045 192.293L189.053 192.294L189.074 192.298L189.103 192.303L189.148 192.31L189.249 192.327L189.138 192.281L189.07 192.251L189.065 192.25L189.055 192.246L189.012 192.227L-4 111.229V159.72L188.984 192.282L189.045 192.293Z" fill="white" fill-opacity="0.05"/>
<path d="M382 114.184V53.4838L189.33 192.143L382 114.184Z" fill="white" fill-opacity="0.05"/>
</g>
</svg>
